
<svg xmlns="http://www.w3.org/2000/svg" xmlns:xlink="http://www.w3.org/1999/xlink" viewBox="0 0 230.96 148.39" height="80" width="130" alt="logo-atp"><defs><style>.cls-1{fill:url(#linear-gradient);}.cls-2{fill:url(#linear-gradient-2);}.cls-3{fill:url(#linear-gradient-3);}.cls-4{fill:url(#linear-gradient-4);}.cls-5{fill:url(#linear-gradient-5);}.cls-6{fill:url(#linear-gradient-6);}</style><linearGradient id="linear-gradient" x1="95.39" y1="74.19" x2="148.39" y2="74.19" gradientUnits="userSpaceOnUse"><stop offset="0" stop-color="#48cae4"/><stop offset="0.4" stop-color="#0096c7"/><stop offset="0.48" stop-color="#0080b8"/><stop offset="0.61" stop-color="#0163a4"/><stop offset="0.75" stop-color="#024f96"/><stop offset="0.88" stop-color="#02428d"/><stop offset="1" stop-color="#023e8a"/></linearGradient><linearGradient id="linear-gradient-2" x1="155.28" y1="75.19" x2="197.68" y2="75.19" xlink:href="#linear-gradient"/><linearGradient id="linear-gradient-3" x1="60.01" y1="75.19" x2="112.75" y2="75.19" xlink:href="#linear-gradient"/><linearGradient id="linear-gradient-4" x1="19.2" y1="110.21" x2="119.3" y2="110.21" xlink:href="#linear-gradient"/><linearGradient id="linear-gradient-5" x1="6.89" y1="54" x2="126.15" y2="54" gradientUnits="userSpaceOnUse"><stop offset="0" stop-color="#ffc300"/><stop offset="0.4" stop-color="#fa0"/><stop offset="0.47" stop-color="#ffa000"/><stop offset="0.65" stop-color="#ff8c00"/><stop offset="0.83" stop-color="#ff7f00"/><stop offset="1" stop-color="#ff7b00"/></linearGradient><linearGradient id="linear-gradient-6" x1="110.87" y1="111.56" x2="237.85" y2="111.56" gradientUnits="userSpaceOnUse"><stop offset="0" stop-color="#fff"/><stop offset="0" stop-color="#ffc300"/><stop offset="0.4" stop-color="#fa0"/><stop offset="0.47" stop-color="#ffa000"/><stop offset="0.65" stop-color="#ff8c00"/><stop offset="0.83" stop-color="#ff7f00"/><stop offset="1" stop-color="#ff7b00"/></linearGradient></defs><title>logo-header</title><g id="Layer_2" data-name="Layer 2"><polygon class="cls-1" points="148.39 53 137.79 63.59 127.19 63.59 127.19 95.39 116.59 95.39 116.59 63.59 95.39 63.59 105.99 53 148.39 53"/><path class="cls-2" d="M197.68,69.89a15,15,0,0,1-.94,5.3,15.73,15.73,0,0,1-9.66,9.67,15.08,15.08,0,0,1-5.3.93h-15.9v10.6h-10.6V75.19h31.8V64.6h-31.8L165.88,54h15.9a15.08,15.08,0,0,1,5.3.93,15.73,15.73,0,0,1,9.66,9.67A15,15,0,0,1,197.68,69.89Z" transform="translate(-6.89 -1)"/><path class="cls-3" d="M112.75,96.39H79l2.12-3.54,4.24-7.06h11.3l-4.94-9.26L91,75.19l-4.6-8.6-4.6,8.6-.7,1.34-4.94,9.26-5.66,10.6H60l5.32-10.6,5.15-10.24.17-.36L76,64.6l2.62-5.22a11,11,0,0,1,2.48-3.31,7.82,7.82,0,0,1,10.6,0,10.84,10.84,0,0,1,2.48,3.31l2.63,5.22,5.32,10.59.17.36,5.15,10.24Z" transform="translate(-6.89 -1)"/><path class="cls-4" d="M119.3,138.79a70.6,70.6,0,0,1-6.42,3.46,73.47,73.47,0,0,1-10.6,4.07,75.24,75.24,0,0,1-31.8,2.33,77,77,0,0,1-10.59-2.33,73.47,73.47,0,0,1-10.6-4.07,72.14,72.14,0,0,1-6.43-3.46c-1.42-.85-2.82-1.76-4.17-2.71a72.43,72.43,0,0,1-9.54-7.89l-1.06-1.06a72,72,0,0,1-6.66-7.84C15.09,100.63,22.68,80.54,38.84,71c-.11,1.38-.15,2.76-.15,4.15a59.87,59.87,0,0,0,.91,10.6,57.27,57.27,0,0,0,2.73,10.6,60,60,0,0,0,4.9,10.6c.64,1.15,1.31,2.25,2.06,3.33a60.11,60.11,0,0,0,5.61,7.27,54.54,54.54,0,0,0,5,5,59.42,59.42,0,0,0,7.27,5.62c1.08.74,2.18,1.42,3.32,2.06a59.27,59.27,0,0,0,10.6,4.89,57.7,57.7,0,0,0,10.6,2.74,61,61,0,0,0,10.6.91Z" transform="translate(-6.89 -1)"/><path class="cls-5" d="M126.15,16.26a27.64,27.64,0,0,0-2.67-1,57.29,57.29,0,0,0-10.6-2.74,62.19,62.19,0,0,0-21.2,0,57.7,57.7,0,0,0-10.6,2.74,59.27,59.27,0,0,0-10.6,4.89c-1.14.64-2.24,1.32-3.32,2.06a58.44,58.44,0,0,0-7.27,5.62,54.54,54.54,0,0,0-5,5,60.11,60.11,0,0,0-5.61,7.27c-.75,1.08-1.42,2.18-2.06,3.33A60,60,0,0,0,42.33,54,57.27,57.27,0,0,0,39.6,64.6s0,.08,0,.12A45.39,45.39,0,0,0,14,107,72.32,72.32,0,0,1,10,96.39a76.82,76.82,0,0,1-2.33-10.6,76.22,76.22,0,0,1,0-21.19A76.82,76.82,0,0,1,10,54a73.47,73.47,0,0,1,7.53-17c.85-1.42,1.76-2.82,2.71-4.17a71.65,71.65,0,0,1,7.89-9.54l1.06-1.06a72.43,72.43,0,0,1,9.54-7.89c1.35-1,2.75-1.86,4.17-2.71a73.47,73.47,0,0,1,17-7.53A77,77,0,0,1,70.48,1.74a76.29,76.29,0,0,1,21.2,0,76.82,76.82,0,0,1,10.6,2.33,72.32,72.32,0,0,1,10.6,4.07,70.6,70.6,0,0,1,6.42,3.46c1.43.85,2.82,1.76,4.18,2.71Q124.85,15.24,126.15,16.26Z" transform="translate(-6.89 -1)"/><path class="cls-6" d="M114.11,106.54h2.78l3.24,10.3h-2.47l-1.34-5.22c-.29-1-.57-2.25-.84-3.32h-.06c-.25,1.09-.53,2.29-.82,3.32l-1.35,5.22h-2.38Zm-1.11,6h5v1.81h-5Z" transform="translate(-6.89 -1)"/><path class="cls-6" d="M121.12,106.54h2.39l2.69,5.12,1,2.26h.06c-.11-1.09-.3-2.53-.3-3.74v-3.64h2.22v10.3h-2.39l-2.68-5.14-1-2.25H123c.11,1.14.3,2.52.3,3.73v3.66h-2.22Z" transform="translate(-6.89 -1)"/><path class="cls-6" d="M136.82,108.49H134v-1.95h8v1.95h-2.84v8.35h-2.32Z" transform="translate(-6.89 -1)"/><path class="cls-6" d="M143.59,106.54h2.33v4h3.56v-4h2.33v10.3h-2.33v-4.3h-3.56v4.3h-2.33Z" transform="translate(-6.89 -1)"/><path class="cls-6" d="M154.19,112.07v-5.53h2.33v5.76c0,2,.63,2.72,1.79,2.72s1.82-.7,1.82-2.72v-5.76h2.25v5.53c0,3.45-1.41,5-4.07,5S154.19,115.52,154.19,112.07Zm7-5.53c.63,0,1.31-.2,1.31-1.16a2.48,2.48,0,0,0-.25-1l1.73-.69a2.88,2.88,0,0,1,.47,1.56c0,1.3-.8,1.94-2.11,2.18Z" transform="translate(-6.89 -1)"/><path class="cls-6" d="M164.57,111.64c0-3.36,1.9-5.29,4.68-5.29s4.68,1.94,4.68,5.29S172,117,169.25,117,164.57,115,164.57,111.64Zm7,0c0-2.06-.89-3.28-2.29-3.28s-2.29,1.22-2.29,3.28.88,3.38,2.29,3.38S171.54,113.71,171.54,111.64ZM168,119.2a1.29,1.29,0,1,1,1.29,1.22A1.21,1.21,0,0,1,168,119.2Zm3.46-12.35c.63-.18,1-.45,1-1.16a2.56,2.56,0,0,0-.24-1l1.72-.7a2.89,2.89,0,0,1,.47,1.57c0,1.14-.62,1.76-1.86,2.09Z" transform="translate(-6.89 -1)"/><path class="cls-6" d="M175.86,106.54h2.39l2.68,5.12,1,2.26H182c-.11-1.09-.3-2.53-.3-3.74v-3.64h2.22v10.3h-2.39l-2.69-5.14-1-2.25h-.06c.11,1.14.3,2.52.3,3.73v3.66h-2.22Z" transform="translate(-6.89 -1)"/><path class="cls-6" d="M185.89,111.75c0-3.42,2.27-5.4,5-5.4a4.5,4.5,0,0,1,3.25,1.33l-1.23,1.5a2.66,2.66,0,0,0-1.94-.82c-1.59,0-2.72,1.24-2.72,3.31s1,3.35,2.9,3.35a1.83,1.83,0,0,0,1.09-.31v-1.78h-1.7V111h3.77v4.75a5,5,0,0,1-3.4,1.25C188.09,117,185.89,115.22,185.89,111.75Z" transform="translate(-6.89 -1)"/><path class="cls-6" d="M199.62,106.54h3.54c2.27,0,4.1.81,4.1,3.31s-1.85,3.49-4,3.49H202v3.5h-2.33Zm3.47,5c1.28,0,1.89-.58,1.89-1.65s-.69-1.46-1.95-1.46H202v3.11Z" transform="translate(-6.89 -1)"/><path class="cls-6" d="M209.05,106.54h2.33v4h3.55v-4h2.33v10.3h-2.33v-4.3h-3.55v4.3h-2.33Z" transform="translate(-6.89 -1)"/><path class="cls-6" d="M219.64,112.07v-5.53H222v5.76c0,2,.64,2.72,1.79,2.72s1.83-.7,1.83-2.72v-5.76h2.24v5.53c0,3.45-1.4,5-4.07,5S219.64,115.52,219.64,112.07Zm2.9-7.15,2.7-2.21,1.24,1.5-2.91,1.87Z" transform="translate(-6.89 -1)"/><path class="cls-6" d="M229.73,111.75c0-3.42,2.26-5.4,4.86-5.4a4.34,4.34,0,0,1,3.1,1.33l-1.23,1.5a2.57,2.57,0,0,0-1.81-.82c-1.42,0-2.53,1.24-2.53,3.31s1,3.35,2.49,3.35a2.7,2.7,0,0,0,2-1l1.23,1.47a4.24,4.24,0,0,1-3.33,1.51C231.91,117,229.73,115.22,229.73,111.75Z" transform="translate(-6.89 -1)"/></g></svg>