
<svg id="Layer_1" data-name="Layer 1" xmlns="http://www.w3.org/2000/svg" xmlns:xlink="http://www.w3.org/1999/xlink" viewBox="0 0 137.66 42.4" height="100" width="100" alt="logo-text"><defs><style>.cls-1{fill:url(#linear-gradient);}.cls-2{fill:url(#linear-gradient-2);}.cls-3{fill:url(#linear-gradient-3);}</style><linearGradient id="linear-gradient" x1="42.27" y1="21.2" x2="95.27" y2="21.2" gradientUnits="userSpaceOnUse"><stop offset="0" stop-color="#48cae4"/><stop offset="0.4" stop-color="#0096c7"/><stop offset="0.48" stop-color="#0080b8"/><stop offset="0.61" stop-color="#0163a4"/><stop offset="0.75" stop-color="#024f96"/><stop offset="0.88" stop-color="#02428d"/><stop offset="1" stop-color="#023e8a"/></linearGradient><linearGradient id="linear-gradient-2" x1="177.28" y1="125.19" x2="219.68" y2="125.19" xlink:href="#linear-gradient"/><linearGradient id="linear-gradient-3" x1="82.01" y1="125.19" x2="134.75" y2="125.19" xlink:href="#linear-gradient"/></defs><title>logo-text</title><polygon class="cls-1" points="95.27 0 84.67 10.6 74.07 10.6 74.07 42.4 63.47 42.4 63.47 10.6 42.27 10.6 52.87 0 95.27 0"/><path class="cls-2" d="M219.68,119.89a15,15,0,0,1-.94,5.3,15.73,15.73,0,0,1-9.66,9.67,15.08,15.08,0,0,1-5.3.93h-15.9v10.6h-10.6v-21.2h31.8V114.6h-31.8l10.6-10.6h15.9a15.08,15.08,0,0,1,5.3.93,15.73,15.73,0,0,1,9.66,9.67A15,15,0,0,1,219.68,119.89Z" transform="translate(-82.01 -104)"/><path class="cls-3" d="M134.75,146.39H101l2.12-3.54,4.24-7.06h11.3l-4.94-9.26-.7-1.34-4.6-8.6-4.6,8.6-.7,1.34-4.94,9.26-5.66,10.6H82l5.32-10.6,5.15-10.24.17-.36L98,114.6l2.62-5.22a11,11,0,0,1,2.48-3.31,7.82,7.82,0,0,1,10.6,0,10.84,10.84,0,0,1,2.48,3.31l2.63,5.22,5.32,10.59.17.36,5.15,10.24Z" transform="translate(-82.01 -104)"/></svg>